<mxfile host="app.diagrams.net" modified="2023-04-24T11:39:17.412Z" agent="Mozilla/5.0 (Macintosh; Intel Mac OS X 10_15_7) AppleWebKit/605.1.15 (KHTML, like Gecko) Version/15.4 Safari/605.1.15" etag="aT3DJQfXk8U7dlnINz-r" version="21.2.1" type="device">
  <diagram name="Page-1" id="YMdzvYCHin_Wwp8OJ8nt">
    <mxGraphModel dx="2798" dy="1848" grid="1" gridSize="10" guides="1" tooltips="1" connect="1" arrows="1" fold="1" page="1" pageScale="1" pageWidth="827" pageHeight="1169" math="0" shadow="0">
      <root>
        <mxCell id="0" />
        <mxCell id="1" parent="0" />
        <mxCell id="8RzWvGVRaa05n0lkUUAk-4" value="Message Type" style="html=1;whiteSpace=wrap;" parent="1" vertex="1">
          <mxGeometry x="50" y="-579" width="110" height="50" as="geometry" />
        </mxCell>
        <mxCell id="9AOaVuLsvawVnCGvauW7-13" style="edgeStyle=orthogonalEdgeStyle;rounded=0;orthogonalLoop=1;jettySize=auto;html=1;entryX=0.5;entryY=1;entryDx=0;entryDy=0;" edge="1" parent="1" source="9AOaVuLsvawVnCGvauW7-1" target="9AOaVuLsvawVnCGvauW7-3">
          <mxGeometry relative="1" as="geometry" />
        </mxCell>
        <mxCell id="9AOaVuLsvawVnCGvauW7-18" style="edgeStyle=orthogonalEdgeStyle;rounded=0;orthogonalLoop=1;jettySize=auto;html=1;entryX=1;entryY=0.5;entryDx=0;entryDy=0;" edge="1" parent="1" source="9AOaVuLsvawVnCGvauW7-1" target="9AOaVuLsvawVnCGvauW7-11">
          <mxGeometry relative="1" as="geometry">
            <mxPoint x="-610" y="-554" as="targetPoint" />
          </mxGeometry>
        </mxCell>
        <mxCell id="9AOaVuLsvawVnCGvauW7-22" style="edgeStyle=orthogonalEdgeStyle;rounded=0;orthogonalLoop=1;jettySize=auto;html=1;entryX=0;entryY=0.5;entryDx=0;entryDy=0;" edge="1" parent="1" source="9AOaVuLsvawVnCGvauW7-1" target="9AOaVuLsvawVnCGvauW7-6">
          <mxGeometry relative="1" as="geometry">
            <mxPoint x="-150" y="-554" as="targetPoint" />
          </mxGeometry>
        </mxCell>
        <mxCell id="9AOaVuLsvawVnCGvauW7-26" style="edgeStyle=orthogonalEdgeStyle;rounded=0;orthogonalLoop=1;jettySize=auto;html=1;entryX=0;entryY=0.5;entryDx=0;entryDy=0;" edge="1" parent="1" source="9AOaVuLsvawVnCGvauW7-1" target="9AOaVuLsvawVnCGvauW7-7">
          <mxGeometry relative="1" as="geometry">
            <mxPoint x="-210" y="-360" as="targetPoint" />
            <Array as="points">
              <mxPoint x="-473" y="-380" />
            </Array>
          </mxGeometry>
        </mxCell>
        <mxCell id="9AOaVuLsvawVnCGvauW7-27" style="edgeStyle=orthogonalEdgeStyle;rounded=0;orthogonalLoop=1;jettySize=auto;html=1;exitX=0.75;exitY=1;exitDx=0;exitDy=0;entryX=0;entryY=0.25;entryDx=0;entryDy=0;" edge="1" parent="1" source="9AOaVuLsvawVnCGvauW7-1" target="9AOaVuLsvawVnCGvauW7-7">
          <mxGeometry relative="1" as="geometry" />
        </mxCell>
        <mxCell id="9AOaVuLsvawVnCGvauW7-1" value="user" style="rounded=0;whiteSpace=wrap;html=1;" vertex="1" parent="1">
          <mxGeometry x="-533" y="-584" width="120" height="60" as="geometry" />
        </mxCell>
        <mxCell id="9AOaVuLsvawVnCGvauW7-2" value="plan" style="rounded=0;whiteSpace=wrap;html=1;" vertex="1" parent="1">
          <mxGeometry x="-533" y="-830" width="120" height="60" as="geometry" />
        </mxCell>
        <mxCell id="9AOaVuLsvawVnCGvauW7-14" style="edgeStyle=orthogonalEdgeStyle;rounded=0;orthogonalLoop=1;jettySize=auto;html=1;exitX=0.5;exitY=0;exitDx=0;exitDy=0;entryX=0.5;entryY=1;entryDx=0;entryDy=0;" edge="1" parent="1" source="9AOaVuLsvawVnCGvauW7-3" target="9AOaVuLsvawVnCGvauW7-2">
          <mxGeometry relative="1" as="geometry" />
        </mxCell>
        <mxCell id="9AOaVuLsvawVnCGvauW7-3" value="buy" style="rhombus;whiteSpace=wrap;html=1;" vertex="1" parent="1">
          <mxGeometry x="-529.5" y="-720" width="113" height="60" as="geometry" />
        </mxCell>
        <mxCell id="9AOaVuLsvawVnCGvauW7-16" style="edgeStyle=orthogonalEdgeStyle;rounded=0;orthogonalLoop=1;jettySize=auto;html=1;entryX=0;entryY=0.5;entryDx=0;entryDy=0;" edge="1" parent="1" source="9AOaVuLsvawVnCGvauW7-4" target="9AOaVuLsvawVnCGvauW7-5">
          <mxGeometry relative="1" as="geometry" />
        </mxCell>
        <mxCell id="9AOaVuLsvawVnCGvauW7-4" value="give" style="rhombus;whiteSpace=wrap;html=1;" vertex="1" parent="1">
          <mxGeometry x="-320" y="-720" width="100" height="60" as="geometry" />
        </mxCell>
        <mxCell id="9AOaVuLsvawVnCGvauW7-17" style="edgeStyle=orthogonalEdgeStyle;rounded=0;orthogonalLoop=1;jettySize=auto;html=1;entryX=0;entryY=0.5;entryDx=0;entryDy=0;" edge="1" parent="1" source="9AOaVuLsvawVnCGvauW7-5" target="9AOaVuLsvawVnCGvauW7-8">
          <mxGeometry relative="1" as="geometry" />
        </mxCell>
        <mxCell id="9AOaVuLsvawVnCGvauW7-5" value="reactions" style="rounded=0;whiteSpace=wrap;html=1;" vertex="1" parent="1">
          <mxGeometry x="-180" y="-720" width="130" height="60" as="geometry" />
        </mxCell>
        <mxCell id="9AOaVuLsvawVnCGvauW7-23" style="edgeStyle=orthogonalEdgeStyle;rounded=0;orthogonalLoop=1;jettySize=auto;html=1;entryX=0;entryY=0.5;entryDx=0;entryDy=0;" edge="1" parent="1" source="9AOaVuLsvawVnCGvauW7-6" target="8RzWvGVRaa05n0lkUUAk-4">
          <mxGeometry relative="1" as="geometry" />
        </mxCell>
        <mxCell id="9AOaVuLsvawVnCGvauW7-6" value="messages" style="rounded=0;whiteSpace=wrap;html=1;" vertex="1" parent="1">
          <mxGeometry x="-180" y="-584" width="120" height="60" as="geometry" />
        </mxCell>
        <mxCell id="9AOaVuLsvawVnCGvauW7-28" style="edgeStyle=orthogonalEdgeStyle;rounded=0;orthogonalLoop=1;jettySize=auto;html=1;entryX=0.583;entryY=0.9;entryDx=0;entryDy=0;entryPerimeter=0;" edge="1" parent="1" source="9AOaVuLsvawVnCGvauW7-7" target="9AOaVuLsvawVnCGvauW7-6">
          <mxGeometry relative="1" as="geometry" />
        </mxCell>
        <mxCell id="9AOaVuLsvawVnCGvauW7-7" value="channels" style="rounded=0;whiteSpace=wrap;html=1;" vertex="1" parent="1">
          <mxGeometry x="-170" y="-410" width="120" height="60" as="geometry" />
        </mxCell>
        <mxCell id="9AOaVuLsvawVnCGvauW7-8" value="reaction type" style="rounded=0;whiteSpace=wrap;html=1;" vertex="1" parent="1">
          <mxGeometry x="105" y="-720" width="120" height="60" as="geometry" />
        </mxCell>
        <mxCell id="9AOaVuLsvawVnCGvauW7-9" value="token" style="rounded=0;whiteSpace=wrap;html=1;" vertex="1" parent="1">
          <mxGeometry x="-710" y="-420" width="120" height="60" as="geometry" />
        </mxCell>
        <mxCell id="9AOaVuLsvawVnCGvauW7-10" value="login" style="rounded=0;whiteSpace=wrap;html=1;" vertex="1" parent="1">
          <mxGeometry x="-810" y="-730" width="120" height="60" as="geometry" />
        </mxCell>
        <mxCell id="9AOaVuLsvawVnCGvauW7-19" style="edgeStyle=orthogonalEdgeStyle;rounded=0;orthogonalLoop=1;jettySize=auto;html=1;entryX=1;entryY=0.5;entryDx=0;entryDy=0;" edge="1" parent="1" source="9AOaVuLsvawVnCGvauW7-11" target="9AOaVuLsvawVnCGvauW7-12">
          <mxGeometry relative="1" as="geometry" />
        </mxCell>
        <mxCell id="9AOaVuLsvawVnCGvauW7-11" value="be rewared" style="rhombus;whiteSpace=wrap;html=1;" vertex="1" parent="1">
          <mxGeometry x="-700" y="-594" width="80" height="80" as="geometry" />
        </mxCell>
        <mxCell id="9AOaVuLsvawVnCGvauW7-12" value="sponsor" style="rounded=0;whiteSpace=wrap;html=1;" vertex="1" parent="1">
          <mxGeometry x="-920" y="-591" width="120" height="74" as="geometry" />
        </mxCell>
        <mxCell id="9AOaVuLsvawVnCGvauW7-15" value="" style="endArrow=classic;html=1;rounded=0;exitX=0.933;exitY=0.017;exitDx=0;exitDy=0;exitPerimeter=0;entryX=0;entryY=0.5;entryDx=0;entryDy=0;" edge="1" parent="1" source="9AOaVuLsvawVnCGvauW7-1" target="9AOaVuLsvawVnCGvauW7-4">
          <mxGeometry width="50" height="50" relative="1" as="geometry">
            <mxPoint x="-470" y="-570" as="sourcePoint" />
            <mxPoint x="-420" y="-620" as="targetPoint" />
            <Array as="points" />
          </mxGeometry>
        </mxCell>
        <mxCell id="9AOaVuLsvawVnCGvauW7-20" value="" style="endArrow=classic;html=1;rounded=0;exitX=0;exitY=0;exitDx=0;exitDy=0;entryX=1;entryY=1;entryDx=0;entryDy=0;" edge="1" parent="1" source="9AOaVuLsvawVnCGvauW7-1" target="9AOaVuLsvawVnCGvauW7-10">
          <mxGeometry width="50" height="50" relative="1" as="geometry">
            <mxPoint x="-530" y="-510" as="sourcePoint" />
            <mxPoint x="-480" y="-560" as="targetPoint" />
          </mxGeometry>
        </mxCell>
        <mxCell id="9AOaVuLsvawVnCGvauW7-21" value="" style="endArrow=classic;html=1;rounded=0;exitX=0;exitY=1;exitDx=0;exitDy=0;entryX=0.75;entryY=0;entryDx=0;entryDy=0;" edge="1" parent="1" source="9AOaVuLsvawVnCGvauW7-1" target="9AOaVuLsvawVnCGvauW7-9">
          <mxGeometry width="50" height="50" relative="1" as="geometry">
            <mxPoint x="-530" y="-480" as="sourcePoint" />
            <mxPoint x="-480" y="-530" as="targetPoint" />
          </mxGeometry>
        </mxCell>
        <mxCell id="9AOaVuLsvawVnCGvauW7-30" value="login" style="text;html=1;align=center;verticalAlign=middle;resizable=0;points=[];autosize=1;strokeColor=none;fillColor=none;" vertex="1" parent="1">
          <mxGeometry x="-655" y="-662" width="50" height="30" as="geometry" />
        </mxCell>
        <mxCell id="9AOaVuLsvawVnCGvauW7-31" value="has" style="text;html=1;align=center;verticalAlign=middle;resizable=0;points=[];autosize=1;strokeColor=none;fillColor=none;" vertex="1" parent="1">
          <mxGeometry x="-580" y="-492" width="40" height="30" as="geometry" />
        </mxCell>
        <mxCell id="9AOaVuLsvawVnCGvauW7-32" value="write" style="text;html=1;align=center;verticalAlign=middle;resizable=0;points=[];autosize=1;strokeColor=none;fillColor=none;" vertex="1" parent="1">
          <mxGeometry x="-325" y="-572" width="50" height="30" as="geometry" />
        </mxCell>
        <mxCell id="9AOaVuLsvawVnCGvauW7-33" value="belong to" style="text;html=1;align=center;verticalAlign=middle;resizable=0;points=[];autosize=1;strokeColor=none;fillColor=none;" vertex="1" parent="1">
          <mxGeometry x="-415" y="-412" width="70" height="30" as="geometry" />
        </mxCell>
        <mxCell id="9AOaVuLsvawVnCGvauW7-34" value="create" style="text;html=1;align=center;verticalAlign=middle;resizable=0;points=[];autosize=1;strokeColor=none;fillColor=none;" vertex="1" parent="1">
          <mxGeometry x="-460" y="-390" width="60" height="30" as="geometry" />
        </mxCell>
        <mxCell id="9AOaVuLsvawVnCGvauW7-35" value="have" style="text;html=1;align=center;verticalAlign=middle;resizable=0;points=[];autosize=1;strokeColor=none;fillColor=none;" vertex="1" parent="1">
          <mxGeometry x="-25" y="-722" width="50" height="30" as="geometry" />
        </mxCell>
        <mxCell id="9AOaVuLsvawVnCGvauW7-36" value="have" style="text;html=1;align=center;verticalAlign=middle;resizable=0;points=[];autosize=1;strokeColor=none;fillColor=none;" vertex="1" parent="1">
          <mxGeometry x="-45" y="-572" width="50" height="30" as="geometry" />
        </mxCell>
        <mxCell id="9AOaVuLsvawVnCGvauW7-37" value="" style="endArrow=classic;html=1;rounded=0;entryX=0.25;entryY=1;entryDx=0;entryDy=0;" edge="1" parent="1" target="9AOaVuLsvawVnCGvauW7-5">
          <mxGeometry width="50" height="50" relative="1" as="geometry">
            <mxPoint x="-148" y="-580" as="sourcePoint" />
            <mxPoint x="-240" y="-570" as="targetPoint" />
          </mxGeometry>
        </mxCell>
        <mxCell id="9AOaVuLsvawVnCGvauW7-38" value="(0:N)" style="text;html=1;align=center;verticalAlign=middle;resizable=0;points=[];autosize=1;strokeColor=none;fillColor=none;fontSize=11;fontFamily=Helvetica;fontColor=default;" vertex="1" parent="1">
          <mxGeometry x="-480" y="-780" width="50" height="30" as="geometry" />
        </mxCell>
        <mxCell id="9AOaVuLsvawVnCGvauW7-39" value="(0:N)" style="text;html=1;align=center;verticalAlign=middle;resizable=0;points=[];autosize=1;strokeColor=none;fillColor=none;fontSize=11;fontFamily=Helvetica;fontColor=default;" vertex="1" parent="1">
          <mxGeometry x="-480" y="-670" width="50" height="30" as="geometry" />
        </mxCell>
        <mxCell id="9AOaVuLsvawVnCGvauW7-40" value="(0:N)" style="text;html=1;align=center;verticalAlign=middle;resizable=0;points=[];autosize=1;strokeColor=none;fillColor=none;fontSize=11;fontFamily=Helvetica;fontColor=default;" vertex="1" parent="1">
          <mxGeometry x="-560" y="-614" width="50" height="30" as="geometry" />
        </mxCell>
        <mxCell id="9AOaVuLsvawVnCGvauW7-41" value="(0:N)" style="text;html=1;align=center;verticalAlign=middle;resizable=0;points=[];autosize=1;strokeColor=none;fillColor=none;fontSize=11;fontFamily=Helvetica;fontColor=default;" vertex="1" parent="1">
          <mxGeometry x="-579.5" y="-529" width="50" height="30" as="geometry" />
        </mxCell>
        <mxCell id="9AOaVuLsvawVnCGvauW7-42" value="(0:N)" style="text;html=1;align=center;verticalAlign=middle;resizable=0;points=[];autosize=1;strokeColor=none;fillColor=none;fontSize=11;fontFamily=Helvetica;fontColor=default;" vertex="1" parent="1">
          <mxGeometry x="-630" y="-584" width="50" height="30" as="geometry" />
        </mxCell>
        <mxCell id="9AOaVuLsvawVnCGvauW7-43" value="(1:1)" style="text;html=1;align=center;verticalAlign=middle;resizable=0;points=[];autosize=1;strokeColor=none;fillColor=none;fontSize=11;fontFamily=Helvetica;fontColor=default;" vertex="1" parent="1">
          <mxGeometry x="-700" y="-700" width="50" height="30" as="geometry" />
        </mxCell>
        <mxCell id="9AOaVuLsvawVnCGvauW7-44" value="(0:N)" style="text;html=1;align=center;verticalAlign=middle;resizable=0;points=[];autosize=1;strokeColor=none;fillColor=none;fontSize=11;fontFamily=Helvetica;fontColor=default;" vertex="1" parent="1">
          <mxGeometry x="-810" y="-584" width="50" height="30" as="geometry" />
        </mxCell>
        <mxCell id="9AOaVuLsvawVnCGvauW7-45" value="(1:1)" style="text;html=1;align=center;verticalAlign=middle;resizable=0;points=[];autosize=1;strokeColor=none;fillColor=none;fontSize=11;fontFamily=Helvetica;fontColor=default;" vertex="1" parent="1">
          <mxGeometry x="-655" y="-450" width="50" height="30" as="geometry" />
        </mxCell>
        <mxCell id="9AOaVuLsvawVnCGvauW7-46" value="(0:N)" style="text;html=1;align=center;verticalAlign=middle;resizable=0;points=[];autosize=1;strokeColor=none;fillColor=none;fontSize=11;fontFamily=Helvetica;fontColor=default;" vertex="1" parent="1">
          <mxGeometry x="-350" y="-715" width="50" height="30" as="geometry" />
        </mxCell>
        <mxCell id="9AOaVuLsvawVnCGvauW7-47" value="(1:N)" style="text;html=1;align=center;verticalAlign=middle;resizable=0;points=[];autosize=1;strokeColor=none;fillColor=none;fontSize=11;fontFamily=Helvetica;fontColor=default;" vertex="1" parent="1">
          <mxGeometry x="-240" y="-720" width="50" height="30" as="geometry" />
        </mxCell>
        <mxCell id="9AOaVuLsvawVnCGvauW7-48" value="(0:N)" style="text;html=1;align=center;verticalAlign=middle;resizable=0;points=[];autosize=1;strokeColor=none;fillColor=none;fontSize=11;fontFamily=Helvetica;fontColor=default;" vertex="1" parent="1">
          <mxGeometry x="-400" y="-584" width="50" height="30" as="geometry" />
        </mxCell>
        <mxCell id="9AOaVuLsvawVnCGvauW7-49" value="(1:1)" style="text;html=1;align=center;verticalAlign=middle;resizable=0;points=[];autosize=1;strokeColor=none;fillColor=none;fontSize=11;fontFamily=Helvetica;fontColor=default;" vertex="1" parent="1">
          <mxGeometry x="-230" y="-591" width="50" height="30" as="geometry" />
        </mxCell>
        <mxCell id="9AOaVuLsvawVnCGvauW7-50" value="(0:N)" style="text;html=1;align=center;verticalAlign=middle;resizable=0;points=[];autosize=1;strokeColor=none;fillColor=none;fontSize=11;fontFamily=Helvetica;fontColor=default;" vertex="1" parent="1">
          <mxGeometry x="-440" y="-430" width="50" height="30" as="geometry" />
        </mxCell>
        <mxCell id="9AOaVuLsvawVnCGvauW7-51" value="(0:N)" style="text;html=1;align=center;verticalAlign=middle;resizable=0;points=[];autosize=1;strokeColor=none;fillColor=none;fontSize=11;fontFamily=Helvetica;fontColor=default;" vertex="1" parent="1">
          <mxGeometry x="-325" y="-420" width="50" height="30" as="geometry" />
        </mxCell>
        <mxCell id="9AOaVuLsvawVnCGvauW7-52" value="(0:N)" style="text;html=1;align=center;verticalAlign=middle;resizable=0;points=[];autosize=1;strokeColor=none;fillColor=none;fontSize=11;fontFamily=Helvetica;fontColor=default;" vertex="1" parent="1">
          <mxGeometry x="-490" y="-382" width="50" height="30" as="geometry" />
        </mxCell>
        <mxCell id="9AOaVuLsvawVnCGvauW7-53" value="(1:1)" style="text;html=1;align=center;verticalAlign=middle;resizable=0;points=[];autosize=1;strokeColor=none;fillColor=none;fontSize=11;fontFamily=Helvetica;fontColor=default;" vertex="1" parent="1">
          <mxGeometry x="-416.5" y="-380" width="50" height="30" as="geometry" />
        </mxCell>
        <mxCell id="9AOaVuLsvawVnCGvauW7-54" value="(0:N)" style="text;html=1;align=center;verticalAlign=middle;resizable=0;points=[];autosize=1;strokeColor=none;fillColor=none;fontSize=11;fontFamily=Helvetica;fontColor=default;" vertex="1" parent="1">
          <mxGeometry x="-110" y="-529" width="50" height="30" as="geometry" />
        </mxCell>
        <mxCell id="9AOaVuLsvawVnCGvauW7-55" value="(0:N)" style="text;html=1;align=center;verticalAlign=middle;resizable=0;points=[];autosize=1;strokeColor=none;fillColor=none;fontSize=11;fontFamily=Helvetica;fontColor=default;" vertex="1" parent="1">
          <mxGeometry x="-120" y="-440" width="50" height="30" as="geometry" />
        </mxCell>
        <mxCell id="9AOaVuLsvawVnCGvauW7-56" value="get" style="text;html=1;align=center;verticalAlign=middle;resizable=0;points=[];autosize=1;strokeColor=none;fillColor=none;" vertex="1" parent="1">
          <mxGeometry x="-160" y="-640" width="40" height="30" as="geometry" />
        </mxCell>
        <mxCell id="9AOaVuLsvawVnCGvauW7-57" value="have" style="text;html=1;align=center;verticalAlign=middle;resizable=0;points=[];autosize=1;strokeColor=none;fillColor=none;" vertex="1" parent="1">
          <mxGeometry x="-125" y="-482" width="50" height="30" as="geometry" />
        </mxCell>
        <mxCell id="9AOaVuLsvawVnCGvauW7-58" value="(0:N)" style="text;html=1;align=center;verticalAlign=middle;resizable=0;points=[];autosize=1;strokeColor=none;fillColor=none;fontSize=11;fontFamily=Helvetica;fontColor=default;" vertex="1" parent="1">
          <mxGeometry x="-150" y="-602" width="50" height="30" as="geometry" />
        </mxCell>
        <mxCell id="9AOaVuLsvawVnCGvauW7-59" value="(0:N)" style="text;html=1;align=center;verticalAlign=middle;resizable=0;points=[];autosize=1;strokeColor=none;fillColor=none;fontSize=11;fontFamily=Helvetica;fontColor=default;" vertex="1" parent="1">
          <mxGeometry x="-150" y="-670" width="50" height="30" as="geometry" />
        </mxCell>
        <mxCell id="9AOaVuLsvawVnCGvauW7-60" value="(1:1)" style="text;html=1;align=center;verticalAlign=middle;resizable=0;points=[];autosize=1;strokeColor=none;fillColor=none;fontSize=11;fontFamily=Helvetica;fontColor=default;" vertex="1" parent="1">
          <mxGeometry x="-60" y="-591" width="50" height="30" as="geometry" />
        </mxCell>
        <mxCell id="9AOaVuLsvawVnCGvauW7-61" value="(1:1)" style="text;html=1;align=center;verticalAlign=middle;resizable=0;points=[];autosize=1;strokeColor=none;fillColor=none;fontSize=11;fontFamily=Helvetica;fontColor=default;" vertex="1" parent="1">
          <mxGeometry x="-60" y="-730" width="50" height="30" as="geometry" />
        </mxCell>
      </root>
    </mxGraphModel>
  </diagram>
</mxfile>
